# Exported from Wings 3D 2.2.6.1
mtllib Tube.mtl
o Tube1
#24 vertices, 48 faces
v 0.50000000 0.50000000 0.0000000e+0
v 0.25000000 0.50000000 0.43301270
v -0.25000000 0.50000000 0.43301270
v -0.50000000 0.50000000 1.1102230e-16
v -0.25000000 0.50000000 -0.43301270
v 0.25000000 0.50000000 -0.43301270
v 0.50000000 -0.50000000 0.0000000e+0
v 0.25000000 -0.50000000 0.43301270
v -0.25000000 -0.50000000 0.43301270
v -0.50000000 -0.50000000 1.1102230e-16
v -0.25000000 -0.50000000 -0.43301270
v 0.25000000 -0.50000000 -0.43301270
v 0.37500000 0.50000000 0.0000000e+0
v 0.18750000 0.50000000 0.32475953
v -0.18750000 0.50000000 0.32475953
v -0.37500000 0.50000000 0.0000000e+0
v -0.18750000 0.50000000 -0.32475953
v 0.18750000 0.50000000 -0.32475953
v 0.37500000 -0.50000000 0.0000000e+0
v 0.18750000 -0.50000000 0.32475953
v -0.18750000 -0.50000000 0.32475953
v -0.37500000 -0.50000000 0.0000000e+0
v -0.18750000 -0.50000000 -0.32475953
v 0.18750000 -0.50000000 -0.32475953
vt 0.0000000e+0 0.12830006
vt 0.0000000e+0 0.38490018
vt 0.0000000e+0 0.80949654
vt 1.9428903e-16 0.51320024
vt 3.7037037e-2 0.38490018
vt 3.7037037e-2 0.12830006
vt 7.4074074e-2 0.51320024
vt 7.4074074e-2 1.9428903e-16
vt 7.4074074e-2 0.25660012
vt 7.4074074e-2 0.25660012
vt 9.2592593e-2 0.48112522
vt 9.2592593e-2 0.28867513
vt 9.2592593e-2 3.2075015e-2
vt 9.2592593e-2 0.22452510
vt 0.11111111 0.80949654
vt 0.11111111 0.51320024
vt 0.20370370 0.48112522
vt 0.20370370 0.28867513
vt 0.20370370 3.2075015e-2
vt 0.20370370 0.22452510
vt 0.22222222 0.80949654
vt 0.22222222 0.51320024
vt 0.22222222 0.51320024
vt 0.22222222 0.80949654
vt 0.22222222 0.25660012
vt 0.22222222 0.51320024
vt 0.22222222 0.0000000e+0
vt 0.22222222 0.25660012
vt 0.25925926 0.38490018
vt 0.25925926 0.12830006
vt 0.29629630 0.38490018
vt 0.29629630 0.12830006
vt 0.29629630 0.29629630
vt 0.29629630 0.0000000e+0
vt 0.33333333 0.51320024
vt 0.33333333 0.80949654
vt 0.44444444 0.51320024
vt 0.44444444 0.80949654
vt 0.44444444 0.51320024
vt 0.44444444 0.80949654
vt 0.44444444 0.29629630
vt 0.44444444 5.5511151e-17
vt 0.59259259 0.51320024
vt 0.59259259 0.80949654
vt 0.59259259 0.0000000e+0
vt 0.59259259 0.0000000e+0
vt 0.59259259 0.29629630
vt 0.59259259 0.29629630
vt 0.59259259 0.59259259
vt 0.74074074 2.7755576e-17
vt 0.74074074 0.29629630
vt 0.74074074 0.59259259
vt 0.74074074 0.29629630
vt 0.74074074 0.59259259
vt 0.85185185 0.29629630
vt 0.85185185 0.59259259
vt 0.88888889 0.0000000e+0
vt 0.88888889 2.7755576e-17
vt 0.88888889 0.29629630
vt 1.00000000 0.0000000e+0
vt 1.00000000 0.29629630
vn 0.65465367 0.75592895 -8.3924972e-17
vn 0.32732684 0.75592895 0.56694671
vn -0.32732684 0.75592895 0.56694671
vn -0.65465367 0.75592895 2.0981243e-16
vn -0.32732684 0.75592895 -0.56694671
vn 0.32732684 0.75592895 -0.56694671
vn 0.65465367 -0.75592895 -8.3924972e-17
vn 0.32732684 -0.75592895 0.56694671
vn -0.32732684 -0.75592895 0.56694671
vn -0.65465367 -0.75592895 2.0981243e-16
vn -0.32732684 -0.75592895 -0.56694671
vn 0.32732684 -0.75592895 -0.56694671
vn -0.65465367 0.75592895 1.2588746e-16
vn -0.32732684 0.75592895 -0.56694671
vn 0.32732684 0.75592895 -0.56694671
vn 0.65465367 0.75592895 -1.8883119e-16
vn 0.32732684 0.75592895 0.56694671
vn -0.32732684 0.75592895 0.56694671
vn -0.65465367 -0.75592895 1.2588746e-16
vn -0.32732684 -0.75592895 -0.56694671
vn 0.32732684 -0.75592895 -0.56694671
vn 0.65465367 -0.75592895 -1.8883119e-16
vn 0.32732684 -0.75592895 0.56694671
vn -0.32732684 -0.75592895 0.56694671
g Tube1
usemtl Tube1_auv
s 1
f 1/41/1 8/34/8 7/42/7
f 1/41/1 12/45/12 6/48/6
f 1/31/1 14/18/14 2/25/2
f 1/31/1 18/17/18 13/29/13
f 2/33/2 8/34/8 1/41/1
f 2/25/2 14/18/14 3/10/3
f 3/38/3 8/43/8 2/44/2
f 3/59/3 10/50/10 9/58/9
f 3/10/3 14/18/14 15/12/15
f 3/10/3 16/5/16 4/2/4
f 4/53/4 10/50/10 3/59/3
f 4/2/4 16/5/16 5/7/5
f 5/47/5 10/50/10 4/53/4
f 5/52/5 12/47/12 11/51/11
f 5/7/5 16/5/16 17/11/17
f 5/7/5 18/17/18 6/26/6
f 6/49/6 12/47/12 5/52/5
f 6/26/6 18/17/18 1/31/1
f 7/42/7 12/45/12 1/41/1
f 7/1/7 19/6/19 12/9/12
f 8/8/8 19/6/19 7/1/7
f 8/8/8 21/19/21 20/13/20
f 9/39/9 8/43/8 3/38/3
f 9/27/9 21/19/21 8/8/8
f 10/32/10 21/19/21 9/27/9
f 10/32/10 23/20/23 22/30/22
f 11/46/11 10/50/10 5/47/5
f 11/28/11 23/20/23 10/32/10
f 12/9/12 19/6/19 24/14/24
f 12/9/12 23/20/23 11/28/11
f 13/29/13 14/18/14 1/31/1
f 13/15/13 19/16/19 14/21/14
f 14/21/14 19/16/19 20/23/20
f 14/54/14 21/55/21 15/56/15
f 15/12/15 16/5/16 3/10/3
f 15/24/15 21/22/21 16/36/16
f 16/36/16 21/22/21 22/35/22
f 16/36/16 23/37/23 17/40/17
f 17/11/17 18/17/18 5/7/5
f 17/59/17 23/57/23 18/61/18
f 18/3/18 19/16/19 13/15/13
f 18/61/18 23/57/23 24/60/24
f 20/13/20 19/6/19 8/8/8
f 20/53/20 21/55/21 14/54/14
f 22/30/22 21/19/21 10/32/10
f 22/35/22 23/37/23 16/36/16
f 24/4/24 19/16/19 18/3/18
f 24/14/24 23/20/23 12/9/12
